<svg width="80" height="80" viewBox="0 0 80 80" fill="none" xmlns="http://www.w3.org/2000/svg">
<circle cx="40" cy="40" r="40" fill="#F6F7FB"/>
<g opacity="0.6" clip-path="url(#clip0_637_65684)">
<path d="M38.6611 43.8738C38.213 43.4153 37.8351 43.0239 37.4498 42.6371C36.1505 41.3346 34.8511 40.0351 33.5503 38.7356C32.8573 38.0441 32.133 38.0471 31.4385 38.7401C29.4088 40.7685 27.3806 42.7984 25.351 44.8282C25.2584 44.9209 25.1598 45.0075 25.0209 45.1374C25.0134 44.9597 25.003 44.8402 25.003 44.7222C25.003 40.6968 24.9985 36.6699 25.003 32.6445C25.006 28.9104 27.4792 25.8783 31.1368 25.1359C31.6072 25.0403 32.0986 25.009 32.5795 25.0075C37.5245 25 42.468 24.997 47.4115 25.0045C51.6202 25.0105 54.9612 28.3353 54.9791 32.543C54.9925 35.711 54.9821 38.8805 54.9821 42.0486C54.9821 42.1442 54.9821 42.2412 54.9821 42.416C54.8342 42.2816 54.7356 42.1994 54.6445 42.1083C52.6417 40.1053 50.639 38.1023 48.6362 36.0993C47.8177 35.2808 47.1576 35.2838 46.3347 36.1083C43.8749 38.5684 41.4151 41.0284 38.9583 43.4899C38.8537 43.5945 38.7761 43.7244 38.6626 43.8738H38.6611ZM41.3613 35.8992C42.1723 35.8962 42.7144 35.354 42.7144 34.5445C42.7144 33.7319 42.1783 33.1927 41.3643 33.1897C40.5294 33.1867 39.9873 33.7289 39.9933 34.5594C40.0007 35.366 40.5474 35.9007 41.3613 35.8992Z" fill="#6F7688"/>
<path d="M32.5172 41.6468C34.178 43.3077 35.8283 44.9612 37.4787 46.6117C38.2941 47.4272 38.9647 47.4302 39.7772 46.6176C42.237 44.1576 44.6968 41.6976 47.1536 39.2345C47.2581 39.13 47.3268 38.9911 47.4105 38.8686C47.4657 38.8641 47.5225 38.8611 47.5777 38.8566C47.6509 38.9731 47.7047 39.1105 47.8003 39.2046C50.1077 41.5198 52.4167 43.8305 54.7331 46.1367C54.9153 46.3189 54.978 46.4996 54.99 46.7536C55.0721 48.6117 54.6823 50.3398 53.5562 51.8469C52.0597 53.8499 50.0644 54.9657 47.5464 54.9791C42.4909 55.0075 37.4339 55.003 32.3769 54.9806C28.9537 54.9657 25.9936 52.5952 25.2095 49.2853C25.1767 49.1464 25.217 48.9268 25.3111 48.8327C27.6738 46.4504 30.047 44.0814 32.4202 41.7095C32.4366 41.6931 32.4605 41.6811 32.5172 41.6453V41.6468Z" fill="#6F7688"/>
</g>
<defs>
<clipPath id="clip0_637_65684">
<rect width="30" height="30" fill="white" transform="translate(25 25)"/>
</clipPath>
</defs>
</svg>
