<svg width="89" height="79" viewBox="0 0 89 79" fill="none" xmlns="http://www.w3.org/2000/svg">
<path d="M60.6369 6.00014C45.974 6.00014 34.0738 17.7766 34.0738 32.2809C34.0738 46.7905 45.974 58.5617 60.6369 58.5617C75.3263 58.5617 87.2 46.7905 87.2 32.2809C87.2 17.7766 75.3263 6.00014 60.6369 6.00014Z" fill="#53D6E6"/>
<g opacity="0.5" filter="url(#filter0_f_272_39786)">
<path d="M60.6369 19.973C53.7699 19.973 48.1967 25.4881 48.1967 32.2809C48.1967 39.076 53.7699 44.5887 60.6369 44.5887C67.5162 44.5887 73.077 39.076 73.077 32.2809C73.077 25.4881 67.5162 19.973 60.6369 19.973Z" fill="#53D6E6"/>
</g>
<g filter="url(#filter1_b_272_39786)">
<mask id="path-3-outside-1_272_39786" maskUnits="userSpaceOnUse" x="0" y="8.50002" width="71" height="71" fill="black">
<rect fill="white" y="8.50002" width="71" height="71"/>
<path d="M35.8956 10.5C17.1852 10.5 2 25.5272 2 44.0354C2 62.5503 17.1852 77.5708 35.8956 77.5708C54.6399 77.5708 69.7913 62.5503 69.7913 44.0354C69.7913 25.5272 54.6399 10.5 35.8956 10.5Z"/>
</mask>
<path d="M35.8956 10.5C17.1852 10.5 2 25.5272 2 44.0354C2 62.5503 17.1852 77.5708 35.8956 77.5708C54.6399 77.5708 69.7913 62.5503 69.7913 44.0354C69.7913 25.5272 54.6399 10.5 35.8956 10.5Z" fill="#53D6E6" fill-opacity="0.35"/>
<path d="M35.8956 9.40002C35.2881 9.40002 34.7956 9.89251 34.7956 10.5C34.7956 11.1075 35.2881 11.6 35.8956 11.6V9.40002ZM35.8956 9.40002C16.5888 9.40002 0.9 24.9087 0.9 44.0354H3.1C3.1 26.1457 17.7817 11.6 35.8956 11.6V9.40002ZM0.9 44.0354C0.9 63.1689 16.5889 78.6708 35.8956 78.6708V76.4708C17.7816 76.4708 3.1 61.9316 3.1 44.0354H0.9ZM35.8956 78.6708C55.237 78.6708 70.8913 63.1682 70.8913 44.0354H68.6913C68.6913 61.9323 54.0429 76.4708 35.8956 76.4708V78.6708ZM70.8913 44.0354C70.8913 24.9094 55.2371 9.40002 35.8956 9.40002V11.6C54.0427 11.6 68.6913 26.145 68.6913 44.0354H70.8913Z" fill="url(#paint0_linear_272_39786)" mask="url(#path-3-outside-1_272_39786)"/>
</g>
<g filter="url(#filter2_bd_272_39786)">
<path d="M47.9992 50.2376C47.9995 50.2376 47.9998 50.2376 48.0001 50.2376C47.8407 51.9597 47.1448 53.3447 46.0749 54.3013C44.9997 55.2628 43.4998 55.8334 41.6667 55.8334H28.9167C25.3979 55.8334 22.5417 52.9772 22.5417 49.4584V39.5417C22.5417 37.7595 23.0771 36.293 23.9856 35.2271C24.8927 34.1629 26.2095 33.453 27.8574 33.2462L27.8671 33.245L27.8769 33.2435C28.2074 33.1927 28.5538 33.1667 28.9167 33.1667H41.6667C42.0204 33.1667 42.3295 33.1807 42.6127 33.2279L42.6297 33.2308L42.6467 33.2328C45.6904 33.5893 47.7249 35.6772 48.0002 38.7626C47.9998 38.7626 47.9995 38.7626 47.9992 38.7626H45.8033C44.2631 38.7626 42.8194 39.3561 41.7744 40.4297C40.5493 41.6268 39.9372 43.306 40.0826 44.9861L40.0827 44.9871C40.3431 47.9495 42.9331 50.2376 45.9733 50.2376H47.9992Z" fill="url(#paint1_linear_272_39786)" stroke="url(#paint2_linear_272_39786)" stroke-width="1.41667"/>
<path d="M43.6192 44.6963L43.6193 44.6962L43.6185 44.6879C43.5548 44.0195 43.8085 43.3917 44.2581 42.9528L44.2646 42.9465L44.2708 42.9401C44.6607 42.5396 45.1998 42.3042 45.8033 42.3042H48.7354C49.1521 42.3245 49.4583 42.6562 49.4583 43.0409V45.9592C49.4583 46.3439 49.1521 46.6756 48.7354 46.6959H45.9733C44.7558 46.6959 43.7117 45.806 43.6192 44.6963Z" fill="url(#paint3_linear_272_39786)" stroke="url(#paint4_linear_272_39786)" stroke-width="1.41667"/>
</g>
<defs>
<filter id="filter0_f_272_39786" x="28.3967" y="0.172976" width="64.4802" height="64.2158" filterUnits="userSpaceOnUse" color-interpolation-filters="sRGB">
<feFlood flood-opacity="0" result="BackgroundImageFix"/>
<feBlend mode="normal" in="SourceGraphic" in2="BackgroundImageFix" result="shape"/>
<feGaussianBlur stdDeviation="9.9" result="effect1_foregroundBlur_272_39786"/>
</filter>
<filter id="filter1_b_272_39786" x="-25.5" y="-17" width="122.791" height="122.071" filterUnits="userSpaceOnUse" color-interpolation-filters="sRGB">
<feFlood flood-opacity="0" result="BackgroundImageFix"/>
<feGaussianBlur in="BackgroundImageFix" stdDeviation="13.2"/>
<feComposite in2="SourceAlpha" operator="in" result="effect1_backgroundBlur_272_39786"/>
<feBlend mode="normal" in="SourceGraphic" in2="effect1_backgroundBlur_272_39786" result="shape"/>
</filter>
<filter id="filter2_bd_272_39786" x="6.25" y="16.8751" width="59.5" height="55.25" filterUnits="userSpaceOnUse" color-interpolation-filters="sRGB">
<feFlood flood-opacity="0" result="BackgroundImageFix"/>
<feGaussianBlur in="BackgroundImageFix" stdDeviation="7.79167"/>
<feComposite in2="SourceAlpha" operator="in" result="effect1_backgroundBlur_272_39786"/>
<feColorMatrix in="SourceAlpha" type="matrix" values="0 0 0 0 0 0 0 0 0 0 0 0 0 0 0 0 0 0 127 0" result="hardAlpha"/>
<feOffset dx="5.19444" dy="5.19444"/>
<feGaussianBlur stdDeviation="5.19444"/>
<feColorMatrix type="matrix" values="0 0 0 0 0.189695 0 0 0 0 0.655153 0 0 0 0 0.711572 0 0 0 0.95 0"/>
<feBlend mode="normal" in2="effect1_backgroundBlur_272_39786" result="effect2_dropShadow_272_39786"/>
<feBlend mode="normal" in="SourceGraphic" in2="effect2_dropShadow_272_39786" result="shape"/>
</filter>
<linearGradient id="paint0_linear_272_39786" x1="12.7913" y1="18.3138" x2="55.4767" y2="71.7487" gradientUnits="userSpaceOnUse">
<stop stop-color="white" stop-opacity="0.25"/>
<stop offset="1" stop-color="white" stop-opacity="0"/>
</linearGradient>
<linearGradient id="paint1_linear_272_39786" x1="35.2752" y1="33.8169" x2="14.8609" y2="24.2584" gradientUnits="userSpaceOnUse">
<stop stop-color="white" stop-opacity="0.75"/>
<stop offset="1" stop-color="white" stop-opacity="0.2"/>
</linearGradient>
<linearGradient id="paint2_linear_272_39786" x1="26.1118" y1="35.2642" x2="41.0384" y2="55.8962" gradientUnits="userSpaceOnUse">
<stop stop-color="white" stop-opacity="0.25"/>
<stop offset="1" stop-color="white" stop-opacity="0"/>
</linearGradient>
<linearGradient id="paint3_linear_272_39786" x1="46.5344" y1="41.9235" x2="41.2588" y2="39.1546" gradientUnits="userSpaceOnUse">
<stop stop-color="white" stop-opacity="0.75"/>
<stop offset="1" stop-color="white" stop-opacity="0.2"/>
</linearGradient>
<linearGradient id="paint4_linear_272_39786" x1="44.0571" y1="42.2726" x2="47.5109" y2="47.6239" gradientUnits="userSpaceOnUse">
<stop stop-color="white" stop-opacity="0.25"/>
<stop offset="1" stop-color="white" stop-opacity="0"/>
</linearGradient>
</defs>
</svg>
