<svg width="36" height="36" viewBox="0 0 36 36" fill="none" xmlns="http://www.w3.org/2000/svg">
<path d="M34.2208 0L20.1536 11.253L22.7661 4.614L34.2208 0Z" fill="#E17726"/>
<path d="M1.77924 0L15.7185 11.3595L13.2339 4.614L1.77924 0Z" fill="#E27625"/>
<path d="M29.1641 26.0865L25.4219 32.2695L33.4293 34.644L35.7177 26.223L29.1641 26.0865Z" fill="#E27625"/>
<path d="M0.296265 26.223L2.57078 34.644L10.5782 32.2695L6.84994 26.0865L0.296265 26.223Z" fill="#E27625"/>
<path d="M10.1399 15.639L7.90851 19.2795L15.8464 19.6605L15.5779 10.446L10.1399 15.639Z" fill="#E27625"/>
<path d="M25.86 15.639L20.3372 10.3395L20.1536 19.6605L28.0914 19.2795L25.86 15.639Z" fill="#E27625"/>
<path d="M10.5781 32.2695L15.3664 29.7555L11.2417 26.2845L10.5781 32.2695Z" fill="#E27625"/>
<path d="M20.6335 29.7555L25.4219 32.2695L24.7583 26.2845L20.6335 29.7555Z" fill="#E27625"/>
<path d="M25.4219 32.2695L20.6335 29.7555L21.0147 33.1215L20.973 34.5375L25.4219 32.2695Z" fill="#D5BFB2"/>
<path d="M10.5781 32.2695L15.027 34.5375L14.9992 33.1215L15.3664 29.7555L10.5781 32.2695Z" fill="#D5BFB2"/>
<path d="M15.1119 24.06L11.1291 22.797L13.9392 21.411L15.1119 24.06Z" fill="#233447"/>
<path d="M20.8879 24.06L22.0606 21.411L24.8846 22.797L20.8879 24.06Z" fill="#233447"/>
<path d="M10.5784 32.2695L11.2698 26.0865L6.8501 26.223L10.5784 32.2695Z" fill="#CC6228"/>
<path d="M24.7304 26.0865L25.4218 32.2695L29.164 26.223L24.7304 26.0865Z" fill="#CC6228"/>
<path d="M28.0914 19.2795L20.1536 19.6605L20.8881 24.06L22.0608 21.411L24.8848 22.797L28.0914 19.2795Z" fill="#CC6228"/>
<path d="M11.129 22.797L13.9391 21.411L15.1118 24.06L15.8464 19.6605L7.90851 19.2795L11.129 22.797Z" fill="#CC6228"/>
<path d="M7.90851 19.2795L11.2417 26.2845L11.129 22.797L7.90851 19.2795Z" fill="#E27525"/>
<path d="M24.8849 22.797L24.7583 26.2845L28.0915 19.2795L24.8849 22.797Z" fill="#E27525"/>
<path d="M15.8466 19.6605L15.1121 24.06L16.0442 29.253L16.2417 22.416L15.8466 19.6605Z" fill="#E27525"/>
<path d="M20.1534 19.6605L19.7722 22.401L19.9558 29.253L20.8879 24.06L20.1534 19.6605Z" fill="#E27525"/>
<path d="M20.8879 24.06L19.9559 29.253L20.6334 29.7555L24.7581 26.2845L24.8847 22.797L20.8879 24.06Z" fill="#F5841F"/>
<path d="M11.1291 22.797L11.2418 26.2845L15.3665 29.7555L16.044 29.253L15.1119 24.06L11.1291 22.797Z" fill="#F5841F"/>
<path d="M20.9727 34.5375L21.0145 33.1215L20.6625 32.787H15.3372L14.9992 33.1215L15.027 34.5375L10.5781 32.2695L12.132 33.639L15.2955 36H20.7043L23.8677 33.639L25.4216 32.2695L20.9727 34.5375Z" fill="#C0AC9D"/>
<path d="M20.6333 29.7555L19.9558 29.253H16.0439L15.3664 29.7555L14.9991 33.1215L15.3372 32.787H20.6625L21.0144 33.1215L20.6333 29.7555Z" fill="#161616"/>
<path d="M34.8135 11.985L36.0001 5.772L34.2208 0L20.6335 10.8735L25.8601 15.639L33.2456 17.97L34.8705 15.9135L34.1638 15.366L35.2934 14.253L34.4323 13.5225L35.5619 12.594L34.8135 11.985Z" fill="#763E1A"/>
<path d="M0 5.772L1.20056 11.985L0.43821 12.594L1.56782 13.5225L0.706701 14.253L1.83631 15.366L1.12961 15.9135L2.75446 17.97L10.14 15.639L15.3666 10.8735L1.77927 0L0 5.772Z" fill="#763E1A"/>
<path d="M33.2457 17.97L25.8601 15.639L28.0915 19.2795L24.7583 26.2845L29.1641 26.223H35.7177L33.2457 17.97Z" fill="#F5841F"/>
<path d="M10.14 15.639L2.75441 17.97L0.296265 26.223H6.84994L11.2418 26.2845L7.9086 19.2795L10.14 15.639Z" fill="#F5841F"/>
<path d="M20.1536 19.6605L20.6335 10.8735L22.7661 4.61402H13.234L15.3666 10.8735L15.8466 19.6605L16.0302 22.431L16.0441 29.253H19.956L19.9699 22.431L20.1536 19.6605Z" fill="#F5841F"/>
</svg>
