<svg width="25" height="31" viewBox="0 0 25 31" fill="none" xmlns="http://www.w3.org/2000/svg">
<path opacity="0.25" d="M9.68085 28.5732L9.6833 28.5752C10.4775 29.2326 11.4762 29.5922 12.5072 29.5922C13.5382 29.5922 14.5369 29.2326 15.3311 28.5752L15.3336 28.5732L22.0273 23.1045L22.028 23.1039C22.5401 22.6871 22.9529 22.1614 23.2363 21.565C23.5198 20.9687 23.6667 20.3167 23.6666 19.6564V19.6563V8.93779C23.6661 8.08186 23.4184 7.24429 22.9534 6.52574C22.4883 5.80719 21.8256 5.23825 21.0449 4.88729L21.0415 4.88577L14.3628 1.82345C14.3627 1.82342 14.3626 1.82338 14.3625 1.82334C13.7825 1.55811 13.1523 1.42084 12.5145 1.42084C11.8767 1.42084 11.2463 1.55815 10.6662 1.82345L10.6659 1.8236L3.95756 4.8861L3.95494 4.8873L3.95493 4.88729C3.17427 5.23825 2.51156 5.80719 2.04648 6.52574C1.58146 7.24421 1.33379 8.08168 1.33325 8.93751L9.68085 28.5732ZM9.68085 28.5732L2.9871 23.1045L2.98491 23.1027M9.68085 28.5732L2.98491 23.1027M2.98491 23.1027C2.47042 22.6872 2.05516 22.162 1.76942 21.5656L1.3187 21.7816M2.98491 23.1027L1.3187 21.7816M1.3187 21.7816L1.76942 21.5656C1.48376 20.9694 1.33475 20.3169 1.33325 19.6557M1.3187 21.7816L1.33325 19.6557M1.33325 19.6557V8.93764V19.6557Z" fill="#7ABF1A" stroke="#7ABF1A"/>
<path d="M8 15.9999L11 18.9999L17 12.9999" stroke="#7ABF1A" stroke-width="2" stroke-linecap="round" stroke-linejoin="round"/>
</svg>
