<svg width="25" height="31" viewBox="0 0 25 31" fill="none" xmlns="http://www.w3.org/2000/svg">
<path opacity="0.3" d="M9.3645 28.9604L2.67075 23.4917C2.09837 23.0294 1.63639 22.4452 1.3185 21.7817C1.00061 21.1181 0.834831 20.392 0.833252 19.6563V8.93751C0.833793 7.98527 1.10933 7.05346 1.62674 6.25406C2.14415 5.45466 2.88141 4.8217 3.74992 4.43126L10.4583 1.36876C11.1036 1.0736 11.8049 0.920837 12.5145 0.920837C13.2241 0.920837 13.9254 1.0736 14.5708 1.36876L21.2499 4.43126C22.1184 4.8217 22.8557 5.45466 23.3731 6.25406C23.8905 7.05346 24.166 7.98527 24.1666 8.93751V19.6563C24.1668 20.3908 24.0032 21.1162 23.6879 21.7797C23.3726 22.4431 22.9134 23.028 22.3437 23.4917L15.6499 28.9604C14.766 29.692 13.6546 30.0922 12.5072 30.0922C11.3598 30.0922 10.2484 29.692 9.3645 28.9604Z" fill="#FF463D"/>
<path d="M15.4167 19.4375C15.2763 19.4389 15.1371 19.4126 15.0069 19.3601C14.8768 19.3075 14.7583 19.2297 14.6583 19.1312L8.825 13.4291C8.62017 13.2241 8.50513 12.9461 8.50513 12.6562C8.50513 12.3664 8.62017 12.0884 8.825 11.8833C9.03436 11.681 9.3141 11.568 9.60521 11.568C9.89632 11.568 10.176 11.681 10.3854 11.8833L16.2187 17.5854C16.4236 17.7905 16.5386 18.0685 16.5386 18.3583C16.5386 18.6482 16.4236 18.9261 16.2187 19.1312C16.1121 19.2331 15.9863 19.3126 15.8486 19.3652C15.7108 19.4178 15.564 19.4423 15.4167 19.4375Z" fill="#FF463D"/>
<path d="M9.5832 19.4375C9.43728 19.4385 9.2926 19.4107 9.15746 19.3556C9.02232 19.3006 8.89938 19.2194 8.7957 19.1167C8.59088 18.9116 8.47583 18.6336 8.47583 18.3437C8.47583 18.0539 8.59088 17.7759 8.7957 17.5708L14.629 11.8687C14.7217 11.7338 14.8434 11.6213 14.9853 11.5396C15.1272 11.4579 15.2856 11.4092 15.4488 11.3969C15.6121 11.3846 15.776 11.4091 15.9285 11.4686C16.081 11.5281 16.2182 11.6211 16.33 11.7407C16.4418 11.8603 16.5253 12.0035 16.5744 12.1597C16.6234 12.3159 16.6368 12.4811 16.6135 12.6431C16.5902 12.8052 16.5309 12.9599 16.4398 13.096C16.3488 13.232 16.2283 13.3459 16.0874 13.4292L10.254 19.1312C10.0713 19.3059 9.83491 19.4138 9.5832 19.4375Z" fill="#FF463D"/>
</svg>
