<svg width="89" height="80" viewBox="0 0 89 80" fill="none" xmlns="http://www.w3.org/2000/svg">
<path d="M60.6369 6C45.9741 6 34.0738 17.7764 34.0738 32.2808C34.0738 46.7904 45.9741 58.5616 60.6369 58.5616C75.3263 58.5616 87.2 46.7904 87.2 32.2808C87.2 17.7764 75.3263 6 60.6369 6V6Z" fill="#F07575"/>
<g opacity="0.5" filter="url(#filter0_f_222_5925)">
<path d="M60.6369 19.9729C53.7699 19.9729 48.1968 25.4881 48.1968 32.2808C48.1968 39.076 53.7699 44.5887 60.6369 44.5887C67.5163 44.5887 73.077 39.076 73.077 32.2808C73.077 25.4881 67.5163 19.9729 60.6369 19.9729V19.9729Z" fill="#FE3E3E"/>
</g>
<g filter="url(#filter1_b_222_5925)">
<mask id="path-3-outside-1_222_5925" maskUnits="userSpaceOnUse" x="-0.299988" y="8.92926" width="71" height="71" fill="black">
<rect fill="white" x="-0.299988" y="8.92926" width="71" height="71"/>
<path d="M35.5956 10.9293C16.8853 10.9293 1.70001 25.9565 1.70001 44.4646C1.70001 62.9795 16.8853 78 35.5956 78C54.3399 78 69.4913 62.9795 69.4913 44.4646C69.4913 25.9565 54.3399 10.9293 35.5956 10.9293V10.9293Z"/>
</mask>
<path d="M35.5956 10.9293C16.8853 10.9293 1.70001 25.9565 1.70001 44.4646C1.70001 62.9795 16.8853 78 35.5956 78C54.3399 78 69.4913 62.9795 69.4913 44.4646C69.4913 25.9565 54.3399 10.9293 35.5956 10.9293V10.9293Z" fill="#FE3E3E" fill-opacity="0.35"/>
<path d="M35.5956 9.82926C34.9881 9.82926 34.4956 10.3217 34.4956 10.9293C34.4956 11.5368 34.9881 12.0293 35.5956 12.0293V9.82926ZM35.5956 9.82926C16.2888 9.82926 0.600012 25.338 0.600012 44.4646H2.80001C2.80001 26.575 17.4817 12.0293 35.5956 12.0293V9.82926ZM0.600012 44.4646C0.600012 63.5981 16.2889 79.1 35.5956 79.1V76.9C17.4816 76.9 2.80001 62.3609 2.80001 44.4646H0.600012ZM35.5956 79.1C54.937 79.1 70.5913 63.5974 70.5913 44.4646H68.3913C68.3913 62.3616 53.7429 76.9 35.5956 76.9V79.1ZM70.5913 44.4646C70.5913 25.3387 54.9371 9.82926 35.5956 9.82926V12.0293C53.7427 12.0293 68.3913 26.5742 68.3913 44.4646H70.5913Z" fill="url(#paint0_linear_222_5925)" mask="url(#path-3-outside-1_222_5925)"/>
</g>
<g filter="url(#filter2_bd_222_5925)">
<mask id="path-5-inside-2_222_5925" fill="white">
<path fill-rule="evenodd" clip-rule="evenodd" d="M35.5958 28.804C33.9688 28.804 32.613 30.1488 32.613 31.7551V46.5778C32.613 48.1908 33.9688 49.4953 35.5958 49.4953C37.2228 49.4953 38.5447 48.1908 38.5447 46.5778V31.7551C38.5447 30.1488 37.2228 28.804 35.5958 28.804ZM32.6462 57.2108C32.6462 58.8205 33.9681 60.1619 35.629 60.1619C37.256 60.1619 38.578 58.8205 38.578 57.2108C38.578 55.6011 37.256 54.2932 35.5951 54.2932C33.9681 54.2932 32.6462 55.6011 32.6462 57.2108Z"/>
</mask>
<path fill-rule="evenodd" clip-rule="evenodd" d="M35.5958 28.804C33.9688 28.804 32.613 30.1488 32.613 31.7551V46.5778C32.613 48.1908 33.9688 49.4953 35.5958 49.4953C37.2228 49.4953 38.5447 48.1908 38.5447 46.5778V31.7551C38.5447 30.1488 37.2228 28.804 35.5958 28.804ZM32.6462 57.2108C32.6462 58.8205 33.9681 60.1619 35.629 60.1619C37.256 60.1619 38.578 58.8205 38.578 57.2108C38.578 55.6011 37.256 54.2932 35.5951 54.2932C33.9681 54.2932 32.6462 55.6011 32.6462 57.2108Z" fill="url(#paint1_linear_222_5925)"/>
<path d="M33.053 31.7551C33.053 30.3959 34.2077 29.244 35.5958 29.244V28.364C33.7299 28.364 32.173 29.9017 32.173 31.7551H33.053ZM33.053 46.5778V31.7551H32.173V46.5778H33.053ZM35.5958 49.0553C34.2004 49.0553 33.053 47.9366 33.053 46.5778H32.173C32.173 48.445 33.7372 49.9353 35.5958 49.9353V49.0553ZM38.1047 46.5778C38.1047 47.9431 36.9845 49.0553 35.5958 49.0553V49.9353C37.461 49.9353 38.9847 48.4386 38.9847 46.5778H38.1047ZM38.1047 31.7551V46.5778H38.9847V31.7551H38.1047ZM35.5958 29.244C36.9774 29.244 38.1047 30.3894 38.1047 31.7551H38.9847C38.9847 29.9082 37.4682 28.364 35.5958 28.364V29.244ZM35.629 59.7219C34.21 59.7219 33.0862 58.5763 33.0862 57.2108H32.2062C32.2062 59.0647 33.7263 60.6019 35.629 60.6019V59.7219ZM38.138 57.2108C38.138 58.5796 37.0109 59.7219 35.629 59.7219V60.6019C37.5011 60.6019 39.018 59.0614 39.018 57.2108H38.138ZM35.5951 54.7332C37.0208 54.7332 38.138 55.8518 38.138 57.2108H39.018C39.018 55.3504 37.4913 53.8532 35.5951 53.8532V54.7332ZM33.0862 57.2108C33.0862 55.8485 34.2067 54.7332 35.5951 54.7332V53.8532C33.7296 53.8532 32.2062 55.3536 32.2062 57.2108H33.0862Z" fill="url(#paint2_linear_222_5925)" mask="url(#path-5-inside-2_222_5925)"/>
</g>
<defs>
<filter id="filter0_f_222_5925" x="28.3968" y="0.172899" width="64.4802" height="64.2158" filterUnits="userSpaceOnUse" color-interpolation-filters="sRGB">
<feFlood flood-opacity="0" result="BackgroundImageFix"/>
<feBlend mode="normal" in="SourceGraphic" in2="BackgroundImageFix" result="shape"/>
<feGaussianBlur stdDeviation="9.9" result="effect1_foregroundBlur_222_5925"/>
</filter>
<filter id="filter1_b_222_5925" x="-25.8" y="-16.5707" width="122.791" height="122.071" filterUnits="userSpaceOnUse" color-interpolation-filters="sRGB">
<feFlood flood-opacity="0" result="BackgroundImageFix"/>
<feGaussianBlur in="BackgroundImageFix" stdDeviation="13.2"/>
<feComposite in2="SourceAlpha" operator="in" result="effect1_backgroundBlur_222_5925"/>
<feBlend mode="normal" in="SourceGraphic" in2="effect1_backgroundBlur_222_5925" result="shape"/>
</filter>
<filter id="filter2_bd_222_5925" x="16.113" y="12.304" width="38.965" height="64.3579" filterUnits="userSpaceOnUse" color-interpolation-filters="sRGB">
<feFlood flood-opacity="0" result="BackgroundImageFix"/>
<feGaussianBlur in="BackgroundImageFix" stdDeviation="8.25"/>
<feComposite in2="SourceAlpha" operator="in" result="effect1_backgroundBlur_222_5925"/>
<feColorMatrix in="SourceAlpha" type="matrix" values="0 0 0 0 0 0 0 0 0 0 0 0 0 0 0 0 0 0 127 0" result="hardAlpha"/>
<feOffset dx="5.5" dy="5.5"/>
<feGaussianBlur stdDeviation="5.5"/>
<feColorMatrix type="matrix" values="0 0 0 0 0.996078 0 0 0 0 0.243137 0 0 0 0 0.243137 0 0 0 1 0"/>
<feBlend mode="normal" in2="effect1_backgroundBlur_222_5925" result="effect2_dropShadow_222_5925"/>
<feBlend mode="normal" in="SourceGraphic" in2="effect2_dropShadow_222_5925" result="shape"/>
</filter>
<linearGradient id="paint0_linear_222_5925" x1="12.4913" y1="18.7431" x2="55.1767" y2="72.178" gradientUnits="userSpaceOnUse">
<stop stop-color="white" stop-opacity="0.25"/>
<stop offset="1" stop-color="white" stop-opacity="0"/>
</linearGradient>
<linearGradient id="paint1_linear_222_5925" x1="35.5961" y1="30.5728" x2="30.1073" y2="30.1348" gradientUnits="userSpaceOnUse">
<stop stop-color="white" stop-opacity="0.75"/>
<stop offset="1" stop-color="white" stop-opacity="0.2"/>
</linearGradient>
<linearGradient id="paint2_linear_222_5925" x1="33.5625" y1="32.4572" x2="42.6972" y2="34.6093" gradientUnits="userSpaceOnUse">
<stop stop-color="white" stop-opacity="0.25"/>
<stop offset="1" stop-color="white" stop-opacity="0"/>
</linearGradient>
</defs>
</svg>
