<svg width="124" height="124" viewBox="0 0 124 124" fill="none" xmlns="http://www.w3.org/2000/svg">
<path d="M4.38278 62.0378C4.38278 30.0699 30.2538 4.29199 62.0225 4.29199C93.7913 4.29199 119.662 30.0508 119.662 62.0378C119.662 75.6075 114.988 88.0863 107.161 97.94C96.3617 111.586 79.8752 119.785 62.0214 119.785C44.1675 119.785 27.6596 111.535 16.8732 97.94C9.04647 88.0875 4.38159 75.6087 4.38159 62.0378H4.38278Z" fill="#D6DCE8"/>
<path d="M11.0743 107.707C11.7026 106.318 11.0683 104.674 9.68194 104.044C8.29557 103.415 6.66286 104.031 6.03453 105.42C5.4062 106.809 6.01311 108.464 7.39949 109.092C8.78586 109.721 10.4459 109.094 11.0743 107.705V107.707Z" fill="#D6DCE8"/>
<path d="M15.1477 113.139C15.5475 112.256 15.1441 111.209 14.2623 110.809C13.3805 110.408 12.3404 110.8 11.9406 111.685C11.5407 112.568 11.9275 113.622 12.8093 114.023C13.6911 114.423 14.7478 114.024 15.1477 113.141V113.139Z" fill="#D6DCE8"/>
<path d="M112.992 11.6563C113.984 10.4999 113.836 8.74259 112.682 7.74948C111.527 6.75637 109.788 6.8887 108.796 8.04514C107.805 9.20159 107.924 10.9601 109.078 11.9544C110.233 12.9475 112.002 12.8128 112.994 11.6563H112.992Z" fill="#D6DCE8"/>
<path d="M115.382 18.0154C116.012 17.2786 115.918 16.1615 115.184 15.5285C114.449 14.8966 113.342 14.9812 112.711 15.7168C112.081 16.4536 112.156 17.5719 112.891 18.205C113.626 18.8368 114.752 18.751 115.383 18.0154H115.382Z" fill="#D6DCE8"/>
<path d="M14.5515 17.131C15.5428 15.9745 15.3953 14.2172 14.241 13.2241C13.0866 12.231 11.3468 12.3633 10.3555 13.5198C9.36425 14.6762 9.48326 16.4347 10.6376 17.429C11.7919 18.4221 13.5615 18.2874 14.5527 17.131H14.5515Z" fill="#D6DCE8"/>
<path d="M106.87 32.8943V111.148C106.87 115.922 103.015 119.784 98.2504 119.784H27.3621C22.5973 119.784 18.7428 115.922 18.7428 111.148V12.9272C18.7428 8.15355 22.5973 4.29199 27.3621 4.29199H76.5373C76.9871 4.29199 77.4286 4.32776 77.8606 4.39095C79.5266 4.65204 81.0939 5.40194 82.3541 6.56553L104.077 26.5326C105.374 27.7237 106.265 29.2759 106.644 30.9629C106.797 31.5948 106.868 32.235 106.868 32.8943H106.87Z" fill="white"/>
<path d="M106.644 30.964H82.0328C79.7289 30.964 77.8606 29.0923 77.8606 26.7841V4.39209C79.5266 4.65318 81.0939 5.40308 82.3541 6.56668L104.077 26.5338C105.374 27.7248 106.265 29.2771 106.644 30.964Z" fill="url(#paint0_linear_111_8207)"/>
<path d="M65.0167 13.708H34.6807C34.5013 13.708 34.3558 13.8537 34.3558 14.0335V17.1845C34.3558 17.3642 34.5013 17.51 34.6807 17.51H65.0167C65.1961 17.51 65.3416 17.3642 65.3416 17.1845V14.0335C65.3416 13.8537 65.1961 13.708 65.0167 13.708Z" fill="#E0E4ED"/>
<path d="M52.6083 22.7212H34.6807C34.5013 22.7212 34.3558 22.8669 34.3558 23.0467V26.1977C34.3558 26.3774 34.5013 26.5231 34.6807 26.5231H52.6083C52.7878 26.5231 52.9332 26.3774 52.9332 26.1977V23.0467C52.9332 22.8669 52.7878 22.7212 52.6083 22.7212Z" fill="#E0E4ED"/>
<path d="M71.6891 102.719H35.0092C34.6483 102.719 34.3558 103.013 34.3558 103.374V105.915C34.3558 106.276 34.6483 106.569 35.0092 106.569H71.6891C72.0499 106.569 72.3424 106.276 72.3424 105.915V103.374C72.3424 103.013 72.0499 102.719 71.6891 102.719Z" fill="#E0E4ED"/>
<path d="M79.7682 78.5022C71.2441 87.0348 57.4303 87.0348 48.9133 78.5022C40.3892 69.9624 40.3892 56.1304 48.9133 47.5906C57.4303 39.058 71.2441 39.058 79.7682 47.5906C88.2851 56.1304 88.2851 69.9624 79.7682 78.5022Z" fill="url(#paint1_linear_111_8207)"/>
<path d="M44.4055 43.0745C33.3954 54.1048 33.3954 71.9855 44.4055 83.0159C55.4156 94.0462 73.2635 94.0462 84.2735 83.0159C95.2836 71.9855 95.2836 54.1048 84.2735 43.0745C73.2635 32.0442 55.4156 32.0442 44.4055 43.0745ZM78.7387 77.4709C70.7846 85.4396 57.8932 85.4396 49.9403 77.4709C41.9862 69.5022 41.9862 56.5882 49.9403 48.6195C57.8944 40.6507 70.7846 40.6507 78.7387 48.6195C86.6928 56.5882 86.6928 69.5034 78.7387 77.4709Z" fill="url(#paint2_linear_111_8207)"/>
<path d="M92.9226 86.3361L87.5913 91.6772L81.4222 85.5052C83.475 83.9529 85.3219 82.0764 86.763 80.1641L92.9238 86.3361H92.9226Z" fill="url(#paint3_linear_111_8207)"/>
<path d="M96.9186 85.4301L108.851 97.3844C111.677 100.216 111.677 104.808 108.851 107.64C106.025 110.471 101.441 110.471 98.6144 107.64L86.6821 95.6855C85.8312 94.833 85.8312 93.4501 86.6821 92.5976L93.8365 85.4301C94.6874 84.5777 96.0678 84.5777 96.9186 85.4301Z" fill="url(#paint4_linear_111_8207)"/>
<path d="M66.8969 67.9559C66.3995 67.9559 65.9961 67.5518 65.9961 67.0534C65.9961 65.0529 62.977 65.0529 62.977 67.0534C62.977 67.5518 62.5736 67.9559 62.0761 67.9559C61.5787 67.9559 61.1753 67.5518 61.1753 67.0534C61.1753 62.6637 67.7977 62.6685 67.7977 67.0534C67.7977 67.5518 67.3943 67.9559 66.8969 67.9559Z" fill="#AAB2C5"/>
<path d="M74.5689 60.2911H70.831C70.3336 60.2911 69.9302 59.8869 69.9302 59.3886C69.9302 58.8902 70.3324 58.4861 70.831 58.4861H74.5689C75.0663 58.4861 75.4697 58.8902 75.4697 59.3886C75.4697 59.8869 75.0675 60.2911 74.5689 60.2911Z" fill="#AAB2C5"/>
<path d="M58.1395 60.2911H54.4028C53.9054 60.2911 53.502 59.8869 53.502 59.3886C53.502 58.8902 53.9054 58.4861 54.4028 58.4861H58.1395C58.6369 58.4861 59.0403 58.8902 59.0403 59.3886C59.0403 59.8869 58.6369 60.2911 58.1395 60.2911Z" fill="#AAB2C5"/>
<path d="M88.0756 38.1698C88.0756 38.9042 87.4806 39.5015 86.7463 39.5015C86.0121 39.5015 85.4111 38.9042 85.4111 38.1698C85.4111 37.4354 86.0061 36.8381 86.7463 36.8381C87.4865 36.8381 88.0756 37.4354 88.0756 38.1698Z" fill="#989FB0"/>
<path d="M92.6918 38.1698C92.6918 38.9042 92.0968 39.5015 91.3625 39.5015C90.6283 39.5015 90.0273 38.9042 90.0273 38.1698C90.0273 37.4354 90.6223 36.8381 91.3625 36.8381C92.1027 36.8381 92.6918 37.4354 92.6918 38.1698Z" fill="#989FB0"/>
<path d="M97.3078 38.1698C97.3078 38.9042 96.7128 39.5015 95.9785 39.5015C95.2443 39.5015 94.6433 38.9042 94.6433 38.1698C94.6433 37.4354 95.2383 36.8381 95.9785 36.8381C96.7187 36.8381 97.3078 37.4354 97.3078 38.1698Z" fill="#989FB0"/>
<defs>
<linearGradient id="paint0_linear_111_8207" x1="77.8606" y1="17.6781" x2="106.644" y2="17.6781" gradientUnits="userSpaceOnUse">
<stop stop-color="#D6DCE8"/>
<stop offset="1" stop-color="white"/>
</linearGradient>
<linearGradient id="paint1_linear_111_8207" x1="42.5206" y1="63.0464" x2="86.1562" y2="63.0464" gradientUnits="userSpaceOnUse">
<stop stop-color="#D6DCE8"/>
<stop offset="1" stop-color="white"/>
</linearGradient>
<linearGradient id="paint2_linear_111_8207" x1="36.1468" y1="63.0452" x2="92.5311" y2="63.0452" gradientUnits="userSpaceOnUse">
<stop stop-color="#989FB0"/>
<stop offset="1" stop-color="#AAB2C5"/>
</linearGradient>
<linearGradient id="paint3_linear_111_8207" x1="81.4222" y1="85.9212" x2="92.9226" y2="85.9212" gradientUnits="userSpaceOnUse">
<stop stop-color="#989FB0"/>
<stop offset="1" stop-color="#AAB2C5"/>
</linearGradient>
<linearGradient id="paint4_linear_111_8207" x1="86.0442" y1="97.2771" x2="110.972" y2="97.2771" gradientUnits="userSpaceOnUse">
<stop stop-color="#989FB0"/>
<stop offset="1" stop-color="#AAB2C5"/>
</linearGradient>
</defs>
</svg>
